<svg width="20" height="20" viewBox="0 0 20 20" fill="none" xmlns="http://www.w3.org/2000/svg">
<path d="M20 10C20 15.5228 15.5228 20 10 20C4.47722 20 0 15.5228 0 10C0 4.47722 4.47722 0 10 0C15.5228 0 20 4.47722 20 10Z" fill="#FFCC4D"/>
<path d="M9.99998 12.1383C8.35221 12.1383 7.25832 11.9461 5.90609 11.6833C5.59665 11.6244 4.99609 11.6833 4.99609 12.5933C4.99609 14.4128 7.08665 16.6872 9.99998 16.6872C12.9133 16.6872 15.0039 14.4128 15.0039 12.5933C15.0039 11.6833 14.4028 11.6239 14.0939 11.6833C12.7416 11.9461 11.6483 12.1383 9.99998 12.1383Z" fill="#664500"/>
<path d="M9.25005 1.82276C8.77283 0.472205 7.29227 -0.236684 5.94116 0.239427C5.12116 0.528316 4.5406 1.18998 4.31449 1.96387C3.65283 1.50332 2.78616 1.35276 1.96727 1.64165C0.617271 2.11832 -0.0927289 3.59998 0.384493 4.95054C0.452271 5.14165 0.542271 5.31887 0.646716 5.48276C1.7306 7.47276 4.86227 8.87165 6.75838 8.88887C8.22338 7.68498 9.78394 4.63054 9.37949 2.40165C9.35838 2.20832 9.31672 2.01387 9.25005 1.82276ZM10.75 1.82276C11.2273 0.472205 12.7084 -0.236684 14.0589 0.239427C14.8789 0.528316 15.4595 1.18998 15.6862 1.96387C16.3478 1.50332 17.2145 1.35276 18.0334 1.64165C19.3834 2.11832 20.0928 3.59998 19.6167 4.95054C19.5484 5.14165 19.4589 5.31887 19.3539 5.48276C18.2701 7.47276 15.1384 8.87165 13.2417 8.88887C11.7767 7.68498 10.2167 4.63054 10.6212 2.40165C10.6417 2.20832 10.6834 2.01387 10.75 1.82276Z" fill="#DD2E44"/>
</svg>
