<svg width="20" height="18" viewBox="0 0 20 18" fill="none" xmlns="http://www.w3.org/2000/svg">
<path d="M20 5.51747C20 2.47023 17.5298 0 14.4831 0C12.6335 0 11.0014 0.913056 10 2.30864C8.9986 0.913056 7.36651 0 5.51747 0C2.47023 0 0 2.46967 0 5.51747C0 5.94912 0.0547945 6.36735 0.148728 6.77048C0.914733 11.5303 6.20688 16.5519 10 17.9307C13.7926 16.5519 19.0853 11.5303 19.8502 6.77104C19.9452 6.36791 20 5.94968 20 5.51747Z" fill="#DD2E44"/>
<path d="M19.14 12.2611L17.0019 11.4694L16.2102 9.33129C16.1291 9.11099 15.9195 8.96562 15.6858 8.96562C15.452 8.96562 15.2424 9.111 15.1613 9.33073L14.3696 11.4688L12.2315 12.2606C12.0117 12.3411 11.8663 12.5507 11.8663 12.785C11.8663 13.0187 12.0123 13.2284 12.2315 13.3095L14.3696 14.1012L15.1613 16.2393C15.2424 16.4591 15.452 16.6044 15.6858 16.6044C15.9195 16.6044 16.1291 16.4585 16.2102 16.2393L17.0019 14.1012L19.14 13.3095C19.3592 13.2284 19.5052 13.0187 19.5052 12.785C19.5052 12.5513 19.3592 12.3416 19.14 12.2611ZM6.2801 3.31452L4.95777 2.82528L4.46853 1.50294C4.3869 1.28321 4.17778 1.13783 3.94407 1.13783C3.70979 1.13783 3.50068 1.28321 3.4196 1.50294L2.92981 2.82528L1.60803 3.31452C1.38829 3.39615 1.24292 3.60526 1.24292 3.83898C1.24292 4.07269 1.38829 4.28181 1.60803 4.36344L2.93037 4.85268L3.4196 6.17501C3.50124 6.39475 3.71035 6.54013 3.94407 6.54013C4.17778 6.54013 4.3869 6.39475 4.46853 6.17501L4.95777 4.85268L6.2801 4.36344C6.49984 4.28181 6.64521 4.07325 6.64521 3.83898C6.64521 3.60526 6.49984 3.39615 6.2801 3.31452Z" fill="#FDCB58"/>
</svg>
