<svg width="236" height="48" viewBox="0 0 236 48" fill="none" xmlns="http://www.w3.org/2000/svg">
<path d="M71.8 15.152C73.576 15.152 75.128 15.504 76.456 16.208C77.784 16.912 78.808 17.904 79.528 19.184C80.264 20.448 80.632 21.912 80.632 23.576C80.632 25.224 80.264 26.688 79.528 27.968C78.808 29.248 77.776 30.24 76.432 30.944C75.104 31.648 73.56 32 71.8 32H65.488V15.152H71.8ZM71.536 28.448C73.088 28.448 74.296 28.024 75.16 27.176C76.024 26.328 76.456 25.128 76.456 23.576C76.456 22.024 76.024 20.816 75.16 19.952C74.296 19.088 73.088 18.656 71.536 18.656H69.592V28.448H71.536ZM95.6695 25.088C95.6695 25.472 95.6455 25.872 95.5975 26.288H86.3095C86.3735 27.12 86.6375 27.76 87.1015 28.208C87.5815 28.64 88.1655 28.856 88.8535 28.856C89.8775 28.856 90.5895 28.424 90.9895 27.56H95.3575C95.1335 28.44 94.7255 29.232 94.1335 29.936C93.5575 30.64 92.8295 31.192 91.9495 31.592C91.0695 31.992 90.0855 32.192 88.9975 32.192C87.6855 32.192 86.5175 31.912 85.4935 31.352C84.4695 30.792 83.6695 29.992 83.0935 28.952C82.5175 27.912 82.2295 26.696 82.2295 25.304C82.2295 23.912 82.5095 22.696 83.0695 21.656C83.6455 20.616 84.4455 19.816 85.4695 19.256C86.4935 18.696 87.6695 18.416 88.9975 18.416C90.2935 18.416 91.4455 18.688 92.4535 19.232C93.4615 19.776 94.2455 20.552 94.8055 21.56C95.3815 22.568 95.6695 23.744 95.6695 25.088ZM91.4695 24.008C91.4695 23.304 91.2295 22.744 90.7495 22.328C90.2695 21.912 89.6695 21.704 88.9495 21.704C88.2615 21.704 87.6775 21.904 87.1975 22.304C86.7335 22.704 86.4455 23.272 86.3335 24.008H91.4695ZM106.139 32L102.059 26.384V32H97.9546V14.24H102.059V24.056L106.115 18.608H111.179L105.611 25.328L111.227 32H106.139ZM119.007 32.192C117.695 32.192 116.511 31.912 115.455 31.352C114.415 30.792 113.591 29.992 112.983 28.952C112.391 27.912 112.095 26.696 112.095 25.304C112.095 23.928 112.399 22.72 113.007 21.68C113.615 20.624 114.447 19.816 115.503 19.256C116.559 18.696 117.743 18.416 119.055 18.416C120.367 18.416 121.551 18.696 122.607 19.256C123.663 19.816 124.495 20.624 125.103 21.68C125.711 22.72 126.015 23.928 126.015 25.304C126.015 26.68 125.703 27.896 125.079 28.952C124.471 29.992 123.631 30.792 122.559 31.352C121.503 31.912 120.319 32.192 119.007 32.192ZM119.007 28.64C119.791 28.64 120.455 28.352 120.999 27.776C121.559 27.2 121.839 26.376 121.839 25.304C121.839 24.232 121.567 23.408 121.023 22.832C120.495 22.256 119.839 21.968 119.055 21.968C118.255 21.968 117.591 22.256 117.063 22.832C116.535 23.392 116.271 24.216 116.271 25.304C116.271 26.376 116.527 27.2 117.039 27.776C117.567 28.352 118.223 28.64 119.007 28.64ZM132.416 20.84C132.896 20.104 133.496 19.528 134.216 19.112C134.936 18.68 135.736 18.464 136.616 18.464V22.808H135.488C134.464 22.808 133.696 23.032 133.184 23.48C132.672 23.912 132.416 24.68 132.416 25.784V32H128.312V18.608H132.416V20.84Z" fill="white"/>
<path d="M142.801 15.152V32H138.697V15.152H142.801ZM145.08 25.28C145.08 23.904 145.336 22.696 145.848 21.656C146.376 20.616 147.088 19.816 147.984 19.256C148.88 18.696 149.88 18.416 150.984 18.416C151.864 18.416 152.664 18.6 153.384 18.968C154.12 19.336 154.696 19.832 155.112 20.456V14.24H159.216V32H155.112V30.08C154.728 30.72 154.176 31.232 153.456 31.616C152.752 32 151.928 32.192 150.984 32.192C149.88 32.192 148.88 31.912 147.984 31.352C147.088 30.776 146.376 29.968 145.848 28.928C145.336 27.872 145.08 26.656 145.08 25.28ZM155.112 25.304C155.112 24.28 154.824 23.472 154.248 22.88C153.688 22.288 153 21.992 152.184 21.992C151.368 21.992 150.672 22.288 150.096 22.88C149.536 23.456 149.256 24.256 149.256 25.28C149.256 26.304 149.536 27.12 150.096 27.728C150.672 28.32 151.368 28.616 152.184 28.616C153 28.616 153.688 28.32 154.248 27.728C154.824 27.136 155.112 26.328 155.112 25.304ZM161.489 25.28C161.489 23.904 161.745 22.696 162.257 21.656C162.785 20.616 163.497 19.816 164.393 19.256C165.289 18.696 166.289 18.416 167.393 18.416C168.337 18.416 169.161 18.608 169.865 18.992C170.585 19.376 171.137 19.88 171.521 20.504V18.608H175.625V32H171.521V30.104C171.121 30.728 170.561 31.232 169.841 31.616C169.137 32 168.313 32.192 167.369 32.192C166.281 32.192 165.289 31.912 164.393 31.352C163.497 30.776 162.785 29.968 162.257 28.928C161.745 27.872 161.489 26.656 161.489 25.28ZM171.521 25.304C171.521 24.28 171.233 23.472 170.657 22.88C170.097 22.288 169.409 21.992 168.593 21.992C167.777 21.992 167.081 22.288 166.505 22.88C165.945 23.456 165.665 24.256 165.665 25.28C165.665 26.304 165.945 27.12 166.505 27.728C167.081 28.32 167.777 28.616 168.593 28.616C169.409 28.616 170.097 28.32 170.657 27.728C171.233 27.136 171.521 26.328 171.521 25.304ZM195.802 18.464C197.466 18.464 198.786 18.968 199.762 19.976C200.754 20.984 201.25 22.384 201.25 24.176V32H197.17V24.728C197.17 23.864 196.938 23.2 196.474 22.736C196.026 22.256 195.402 22.016 194.602 22.016C193.802 22.016 193.17 22.256 192.706 22.736C192.258 23.2 192.034 23.864 192.034 24.728V32H187.954V24.728C187.954 23.864 187.722 23.2 187.258 22.736C186.81 22.256 186.186 22.016 185.386 22.016C184.586 22.016 183.954 22.256 183.49 22.736C183.042 23.2 182.818 23.864 182.818 24.728V32H178.714V18.608H182.818V20.288C183.234 19.728 183.778 19.288 184.45 18.968C185.122 18.632 185.882 18.464 186.73 18.464C187.738 18.464 188.634 18.68 189.418 19.112C190.218 19.544 190.842 20.16 191.29 20.96C191.754 20.224 192.386 19.624 193.186 19.16C193.986 18.696 194.858 18.464 195.802 18.464ZM203.424 25.28C203.424 23.904 203.68 22.696 204.192 21.656C204.72 20.616 205.432 19.816 206.328 19.256C207.224 18.696 208.224 18.416 209.328 18.416C210.272 18.416 211.096 18.608 211.8 18.992C212.52 19.376 213.072 19.88 213.456 20.504V18.608H217.56V32H213.456V30.104C213.056 30.728 212.496 31.232 211.776 31.616C211.072 32 210.248 32.192 209.304 32.192C208.216 32.192 207.224 31.912 206.328 31.352C205.432 30.776 204.72 29.968 204.192 28.928C203.68 27.872 203.424 26.656 203.424 25.28ZM213.456 25.304C213.456 24.28 213.168 23.472 212.592 22.88C212.032 22.288 211.344 21.992 210.528 21.992C209.712 21.992 209.016 22.288 208.44 22.88C207.88 23.456 207.6 24.256 207.6 25.28C207.6 26.304 207.88 27.12 208.44 27.728C209.016 28.32 209.712 28.616 210.528 28.616C211.344 28.616 212.032 28.32 212.592 27.728C213.168 27.136 213.456 26.328 213.456 25.304ZM228.809 18.464C230.377 18.464 231.625 18.976 232.553 20C233.497 21.008 233.969 22.4 233.969 24.176V32H229.889V24.728C229.889 23.832 229.657 23.136 229.193 22.64C228.729 22.144 228.105 21.896 227.321 21.896C226.537 21.896 225.913 22.144 225.449 22.64C224.985 23.136 224.753 23.832 224.753 24.728V32H220.649V18.608H224.753V20.384C225.169 19.792 225.729 19.328 226.433 18.992C227.137 18.64 227.929 18.464 228.809 18.464Z" fill="#F2C229"/>
<path d="M14 22V26H34V22C34 18.28 36.56 15.18 40 14.28V12C40 8.7 37.3 6 34 6H14C10.7 6 8 8.7 8 12V14.28C11.44 15.18 14 18.28 14 22Z" fill="white"/>
<path d="M42 18C39.8 18 38 19.8 38 22V30H10V22C10 19.8 8.2 18 6 18C3.8 18 2 19.8 2 22V32C2 35.3 4.7 38 8 38V40C8 41.1 8.9 42 10 42C11.1 42 12 41.1 12 40V38H36V40C36 41.1 36.9 42 38 42C39.1 42 40 41.1 40 40V38C43.3 38 46 35.3 46 32V22C46 19.8 44.2 18 42 18Z" fill="#F2C229"/>
</svg>
